<?xml version="1.0" standalone="no"?>
<!DOCTYPE svg PUBLIC "-//W3C//DTD SVG 20010904//EN"
 "http://www.w3.org/TR/2001/REC-SVG-20010904/DTD/svg10.dtd">
<svg version="1.0" xmlns="http://www.w3.org/2000/svg"
 width="340.000000pt" height="340.000000pt" viewBox="0 0 340.000000 340.000000"
 preserveAspectRatio="xMidYMid meet">
<metadata>
Created by potrace 1.11, written by Peter Selinger 2001-2013
</metadata>
<g transform="translate(0.000000,340.000000) scale(0.100000,-0.100000)"
fill="#000000" stroke="none">
<path d="M2511 2768 c-77 -52 -99 -125 -62 -202 71 -146 283 -107 299 54 3 37
-1 57 -17 87 -32 55 -66 76 -131 81 -45 3 -61 0 -89 -20z"/>
<path d="M1610 2458 c-156 -14 -326 -101 -437 -222 -103 -113 -160 -233 -184
-385 -11 -72 -5 -204 9 -229 9 -14 133 -36 302 -54 156 -16 677 -16 815 0 167
20 251 33 266 42 22 14 25 202 4 297 -79 357 -401 587 -775 551z"/>
<path d="M2816 2429 c-19 -15 -26 -30 -26 -53 0 -65 75 -92 120 -44 27 29 25
64 -5 93 -30 30 -54 31 -89 4z"/>
<path d="M781 1925 c-672 -140 -667 -393 11 -529 298 -60 571 -80 1002 -73
500 8 858 59 1106 158 95 39 129 60 174 109 90 100 1 197 -256 280 -105 34
-346 86 -355 76 -4 -3 -2 -23 3 -43 8 -32 15 -38 59 -53 359 -122 208 -282
-329 -350 -269 -34 -733 -31 -1026 6 -135 17 -318 60 -390 92 -165 71 -143
168 54 243 58 22 86 38 86 48 0 9 3 26 6 39 8 28 3 28 -145 -3z"/>
<path d="M1235 1215 c57 -53 202 -128 290 -150 77 -19 251 -19 335 1 87 20
212 82 282 140 32 26 56 49 54 51 -1 2 -81 -2 -177 -8 -164 -11 -643 -7 -779
7 l-55 5 50 -46z"/>
<path d="M666 999 c-50 -40 -21 -119 44 -119 64 0 91 70 45 115 -30 30 -54 31
-89 4z"/>
</g>
</svg>
