<?xml version="1.0" standalone="no"?>
<!DOCTYPE svg PUBLIC "-//W3C//DTD SVG 20010904//EN"
 "http://www.w3.org/TR/2001/REC-SVG-20010904/DTD/svg10.dtd">
<svg version="1.0" xmlns="http://www.w3.org/2000/svg"
 viewBox="0 0 2600.000000 2600.000000"
 preserveAspectRatio="xMidYMid meet">
<metadata>
Created by potrace 1.13, written by Peter Selinger 2001-2015
</metadata>
<g transform="translate(0.000000,2600.000000) scale(0.100000,-0.100000)"
fill="#000000" stroke="none">
<path d="M19596 21344 c-244 -44 -466 -162 -647 -343 -226 -226 -342 -491
-356 -812 -27 -612 395 -1137 1006 -1253 106 -20 312 -21 424 -1 585 102 1009
608 1009 1205 0 537 -341 1003 -853 1165 -174 55 -408 71 -583 39z"/>
<path d="M12550 18839 c-1079 -81 -2120 -484 -2960 -1148 -360 -284 -719 -651
-992 -1016 -855 -1140 -1223 -2560 -1033 -3985 20 -149 55 -343 63 -352 12
-11 425 -89 752 -142 1935 -314 4534 -416 6870 -271 878 55 1749 151 2440 271
216 37 563 103 568 109 7 7 53 274 71 417 58 446 60 924 5 1368 -178 1455
-946 2782 -2124 3669 -292 220 -526 364 -865 531 -650 321 -1299 497 -2030
550 -163 12 -599 11 -765 -1z"/>
<path d="M21763 18709 c-120 -21 -249 -91 -323 -177 -55 -64 -107 -172 -126
-262 -67 -324 194 -640 529 -640 155 0 280 51 388 159 166 166 206 409 103
627 -54 113 -196 235 -318 273 -76 23 -185 32 -253 20z"/>
<path d="M7010 14913 c-846 -144 -1352 -247 -1885 -383 -1576 -403 -2571 -898
-2901 -1445 -68 -111 -114 -264 -114 -377 -1 -410 391 -820 1129 -1179 1501
-732 4287 -1253 7546 -1414 1426 -70 2894 -70 4320 0 2650 131 4978 496 6595
1035 852 284 1425 584 1765 925 214 213 315 419 315 639 0 135 -75 330 -181
471 -497 660 -2041 1256 -4289 1654 -186 33 -532 91 -544 91 -2 0 10 -55 27
-122 16 -68 46 -213 66 -323 l37 -199 94 -29 c780 -235 1293 -484 1578 -767
88 -87 147 -172 186 -270 26 -66 30 -87 30 -180 0 -87 -4 -115 -23 -164 -42
-105 -92 -179 -190 -277 -617 -616 -2535 -1078 -5201 -1254 -1219 -80 -2759
-91 -4050 -30 -2752 132 -4923 557 -5790 1134 -138 91 -226 167 -294 252 -100
126 -144 253 -132 381 40 432 646 829 1796 1175 l94 29 37 199 c20 110 50 255
66 323 26 106 28 122 14 121 -9 -1 -54 -8 -101 -16z"/>
<path d="M9190 9507 c404 -395 861 -713 1394 -972 1025 -498 2143 -656 3286
-464 880 147 1759 544 2465 1112 203 163 526 467 497 467 -7 0 -114 -9 -240
-20 -1196 -103 -2327 -150 -3647 -150 -1320 0 -2451 47 -3647 150 -126 11
-234 20 -240 20 -7 -1 52 -65 132 -143z"/>
<path d="M5296 7775 c-309 -78 -490 -414 -382 -709 136 -376 613 -486 893
-206 286 286 174 772 -207 901 -84 28 -222 34 -304 14z"/>
</g>
</svg>
